<svg xmlns="http://www.w3.org/2000/svg" xml:space="preserve" viewBox="0 0 100 100">
  <path
    d="M49.999 4.5C24.911 4.5 4.5 24.912 4.5 50s20.411 45.5 45.499 45.5C75.088 95.5 95.5 75.088 95.5 50S75.088 4.5 49.999 4.5zm43.317 44.422H80.648a30.767 30.767 0 0 0-14.394-24.934l6.329-10.968c12.155 7.45 20.361 20.72 20.733 35.902zm-44.394 0H36.314c.524-6.715 5.891-12.093 12.607-12.616v12.616zm0 2.156v12.603c-6.715-.525-12.08-5.891-12.604-12.604h12.604zm2.155 0h12.604c-.524 6.713-5.891 12.078-12.604 12.604V51.078zm.788-2.156 5.905-10.231a13.793 13.793 0 0 1 5.917 10.231H51.865zm12.542-26.044-7.404 12.829-5.926 10.27V6.683a43.063 43.063 0 0 1 19.644 5.256l-6.314 10.939zm-15.485 11.27c-7.906.533-14.242 6.868-14.773 14.773H21.496c.557-14.876 12.551-26.876 27.426-27.433v12.66zm-14.774 16.93c.531 7.902 6.867 14.24 14.773 14.773v12.65c-14.875-.557-26.869-12.549-27.425-27.424h12.652zm16.929 14.774c7.904-.533 14.241-6.871 14.773-14.773H78.5c-.556 14.875-12.549 26.867-27.424 27.424V65.852zm14.777-16.93a15.963 15.963 0 0 0-7.004-12.103l6.335-10.978c7.953 5.005 12.951 13.688 13.309 23.081h-12.64zM48.922 6.683v12.659c-16.064.558-29.021 13.517-29.58 29.58H6.682c.567-23.044 19.196-41.673 42.24-42.239zM6.682 51.078h12.66c.559 16.063 13.516 29.02 29.58 29.58v12.658C25.878 92.75 7.249 74.121 6.682 51.078zm44.395 42.238V80.658c16.063-.561 29.021-13.518 29.581-29.58h12.658C92.749 74.121 74.12 92.75 51.077 93.316z" />
  <circle r="2.994" cy="15.915" cx="32.191" />
  <circle r="2.994" cy="42.918" cx="72.211" />
  <circle r="2.993" cy="74.046" cx="55.359" />
  <circle r="2.992" cy="72.211" cx="23.385" />
</svg>